<svg width="4507" height="1033" viewBox="0 0 4507 1033" fill="none" xmlns="http://www.w3.org/2000/svg">
<path d="M912.767 359.867C902.501 363.734 899.834 368.8 899.834 385.334C899.834 404 903.301 408.8 918.901 411.334C928.901 412.934 942.501 411.467 948.901 408.134C955.034 404.934 957.567 396.934 957.034 382.267C956.501 368.934 954.367 364.4 947.034 360.667C941.701 358 919.434 357.467 912.767 359.867Z" fill="white"/>
<path d="M400.1 364.134C369.433 369.334 336.633 386.934 316.1 409.467C295.033 432.267 281.033 459.867 274.367 491.734C270.5 509.334 270.233 543.2 273.567 561.334C283.033 613.334 314.633 656.8 359.167 678.934C365.033 681.867 374.367 685.734 379.833 687.467C385.3 689.067 390.367 690.934 390.9 691.334C391.433 691.867 380.633 696.4 366.9 701.467C337.967 712.134 334.367 714.8 331.967 726.267C329.967 736 332.633 744.934 339.433 751.467C346.767 758.534 350.1 759.867 359.967 759.734C367.433 759.734 370.633 758.8 380.767 754.134C391.3 749.334 393.967 748.667 402.233 748.667C413.967 748.667 420.767 750.934 435.567 759.6C461.033 774.667 476.367 779.867 502.367 782C523.833 783.867 537.033 782.4 557.833 775.734C578.367 769.2 598.367 757.067 606.9 746.134C616.367 734 613.833 717.6 601.167 709.2C588.9 701.067 581.967 702.134 564.9 715.067C546.5 728.934 540.367 731.734 525.967 732.4C509.3 733.2 502.5 731.334 474.5 718C460.9 711.6 447.167 705.467 443.833 704.667C440.5 703.734 436.9 702.8 435.833 702.4C433.3 701.6 449.033 695.467 467.567 690C511.7 677.067 545.567 649.334 565.567 609.334C578.633 583.467 584.233 559.6 584.233 528.667C584.233 488.8 573.3 453.734 551.3 424C516.767 377.067 459.033 354.267 400.1 364.134ZM445.967 418.667C494.5 428 528.233 478.134 524.767 536C521.7 586.4 491.967 626.667 449.833 637.334C438.367 640.267 415.967 640 403.3 636.667C370.767 628.4 344.5 600.134 334.5 562.667C330.367 547.467 329.433 520 332.367 504.267C337.167 478.667 346.5 460.534 363.033 443.867C385.833 421.067 413.967 412.534 445.967 418.667Z" fill="white"/>
<path d="M1103.83 439.467C1080.23 443.067 1058.1 454.4 1040.37 472C1022.37 489.867 1012.9 506.267 1006.37 530.8C1002.37 545.867 1001.3 579.467 1004.37 595.734C1011.83 635.467 1034.23 665.2 1069.3 681.867C1095.17 694.267 1130.9 698 1160.5 691.334C1177.83 687.467 1199.43 677.334 1210.1 668C1221.97 657.6 1224.5 643.734 1216.5 633.2C1211.97 627.334 1205.97 624.667 1197.57 624.8C1189.97 624.934 1186.37 626.134 1173.17 633.6C1158.1 642 1149.97 643.867 1130.5 644C1111.3 644 1101.57 641.467 1088.23 632.8C1073.97 623.6 1060.37 604.8 1057.83 591.067L1056.9 586.134L1136.63 585.734L1216.5 585.334L1222.9 582.134C1232.63 577.467 1236.37 571.6 1236.9 560.267C1239.83 509.067 1197.97 454.267 1146.37 441.467C1135.03 438.667 1115.03 437.734 1103.83 439.467ZM1136.5 490.667C1158.23 496.4 1176.5 514.8 1178.23 532.8L1178.9 539.334H1117.83H1056.9L1057.83 534.934C1058.23 532.667 1061.03 525.734 1063.97 519.734C1071.97 503.2 1082.9 494.667 1101.43 490.667C1112.77 488.267 1126.9 488.267 1136.5 490.667Z" fill="white"/>
<path d="M1405.03 439.334C1386.63 442.267 1368.23 452.134 1353.03 467.334L1342.9 477.467L1341.43 468.267C1339.03 452.267 1330.9 444.4 1315.97 443.6C1304.37 442.934 1296.9 446.667 1291.17 456L1287.17 462.4L1286.77 563.067C1286.37 676 1286.23 673.334 1295.43 682.134C1306.77 692.934 1324.23 692.534 1334.77 681.2C1341.83 673.6 1341.7 674.267 1342.5 598.667L1343.17 528L1347.3 519.334C1354.63 503.734 1368.63 493.067 1385.83 489.867C1397.3 487.734 1413.7 489.067 1422.23 492.667C1430.9 496.4 1439.57 505.734 1442.9 514.8C1447.03 526.4 1447.7 540.267 1447.83 605.734C1447.83 666.4 1447.97 670.4 1450.37 675.067C1460.1 694.134 1486.63 695.334 1497.83 677.334L1501.83 670.934V596.134C1501.83 514.4 1501.3 507.067 1493.43 485.334C1485.17 462 1468.63 446.667 1446.23 441.334C1435.57 438.8 1414.63 437.734 1405.03 439.334Z" fill="white"/>
<path d="M3218.9 439.467C3197.03 442.267 3174.1 452.133 3157.7 465.867C3126.9 491.6 3110.9 535.6 3115.57 581.734C3119.03 616.4 3131.43 643.2 3153.43 664.134C3169.17 679.067 3185.17 687.467 3207.03 692.134C3219.83 694.934 3248.9 694.934 3264.63 692.267C3286.9 688.267 3309.83 678.534 3318.77 669.067C3329.57 657.734 3328.1 640.134 3315.43 630.8C3312.37 628.534 3309.7 628 3301.3 628C3291.3 628 3290.63 628.134 3283.03 633.467C3272.77 640.667 3264.9 643.2 3249.97 644.267C3225.03 645.867 3206.77 639.467 3191.7 623.734C3181.97 613.734 3175.97 603.067 3172.37 589.867C3169.3 578.4 3169.17 555.067 3172.23 543.334C3180.5 511.6 3204.5 491.467 3236.63 489.067C3255.43 487.734 3268.1 491.2 3282.5 501.467C3292.63 508.667 3305.17 509.734 3313.83 504.134C3322.5 498.4 3325.83 480.267 3320.1 469.2C3316.63 462.534 3308.63 455.067 3299.97 450.667C3280.5 440.8 3245.43 436 3218.9 439.467Z" fill="white"/>
<path d="M3467.83 438.934C3414.23 444.667 3372.1 481.6 3359.03 534.267C3355.83 547.467 3355.17 576.267 3357.7 591.067C3363.97 627.067 3382.5 655.6 3412.1 674.934C3432.23 688.134 3454.1 694.267 3481.17 694.267C3518.37 694.267 3545.83 683.2 3570.5 658.134C3588.9 639.467 3598.77 621.2 3603.97 596C3607.3 579.734 3607.3 553.6 3603.97 537.2C3590.9 474.267 3532.63 432 3467.83 438.934ZM3497.83 490.667C3521.17 496.667 3537.97 512.534 3547.57 537.734C3550.63 545.734 3551.03 548.534 3551.03 566C3551.17 581.467 3550.63 586.8 3548.63 592.667C3535.7 630.534 3501.57 651.2 3465.43 642.667C3430.37 634.4 3408.23 600.934 3410.9 560C3412.37 538.534 3419.03 522.934 3432.5 509.334C3449.83 491.867 3474.77 484.8 3497.83 490.667Z" fill="white"/>
<path d="M3772.23 439.334C3753.97 442.667 3735.3 453.201 3720.9 468.401L3712.37 477.467L3710.9 468.401C3708.37 452.534 3700.23 444.534 3685.7 443.601C3671.03 442.667 3660.5 450.401 3657.3 464.667C3655.3 473.201 3655.3 659.6 3657.3 668.667C3661.83 689.867 3689.17 697.2 3704.1 681.2C3711.17 673.6 3711.03 674.4 3711.83 598L3712.5 526.667L3716.9 517.734C3723.83 503.334 3737.03 493.334 3753.43 489.867C3762.37 487.867 3780.23 489.067 3787.17 491.867C3793.57 494.534 3801.83 502.267 3805.17 508.667C3810.9 519.867 3811.03 521.2 3811.7 597.467L3812.5 670.934L3816.5 677.334C3827.7 695.334 3854.23 694.134 3863.97 675.067C3866.37 670.4 3866.5 666.4 3866.5 605.734C3866.5 570.267 3867.03 537.867 3867.83 533.6C3869.83 521.2 3875.3 510.8 3883.97 502.8C3895.43 492.134 3903.3 489.467 3922.5 489.467C3935.97 489.334 3938.63 489.734 3944.23 492.534C3953.17 496.934 3960.5 505.867 3964.1 516.534C3967.03 525.067 3967.03 527.6 3967.83 598.934L3968.5 672.4L3972.5 678.134C3983.57 693.867 4006.9 694 4017.83 678.267L4021.83 672.4L4022.23 601.6C4022.63 527.734 4021.97 513.467 4017.03 494.134C4009.97 466.267 3993.03 447.601 3968.9 441.467C3950.9 436.801 3930.1 437.467 3913.7 443.201C3897.57 448.934 3878.5 464.001 3866.9 480.267L3860.9 488.801L3855.17 477.067C3845.43 457.201 3830.23 444.934 3810.5 440.801C3800.23 438.667 3780.5 437.867 3772.23 439.334Z" fill="white"/>
<path d="M646.367 446.4C642.5 448.533 639.167 451.733 636.5 456L632.5 462.4V533.867C632.5 610.4 632.767 614.4 639.433 633.067C647.433 655.333 663.433 673.867 682.767 683.2C688.767 686.133 697.7 689.467 702.367 690.667C720.1 695.2 751.167 695.467 769.433 691.467C798.5 684.933 820.5 667.467 832.5 641.333C838.233 628.933 841.033 617.067 842.5 598.933C844.233 578.533 844.233 474.933 842.5 465.867C839.833 451.867 831.433 444.4 817.3 443.6C805.7 442.933 798.233 446.667 792.5 456L788.5 462.4L787.833 535.867L787.167 609.333L783.967 617.2C777.567 633.333 763.567 642.533 743.167 644.267C717.967 646.4 699.033 636.267 691.7 616.8C687.3 604.933 686.5 591.6 686.5 525.733C686.5 485.067 685.967 462.267 685.033 459.733C683.167 454.667 676.1 447.467 670.9 445.2C664.1 442.267 653.167 442.8 646.367 446.4Z" fill="white"/>
<path d="M916.499 445.6C910.366 448.8 906.366 452.8 903.699 458.667C901.299 463.734 901.166 469.734 901.166 566.667C901.166 663.6 901.299 669.6 903.699 674.667C912.366 693.467 938.899 695.467 951.166 678.134L955.166 672.4V566.667V460.934L951.166 455.067C945.833 447.467 937.566 443.334 927.833 443.334C923.833 443.467 918.766 444.4 916.499 445.6Z" fill="white"/>
<path d="M3021.83 629.2C3016.63 631.6 3011.3 637.6 3009.3 643.2C3008.5 645.734 3007.83 652.934 3007.83 659.2C3007.97 677.467 3012.9 685.2 3027.03 688.8C3034.63 690.667 3050.1 689.6 3055.43 686.934C3065.03 681.867 3068.1 675.067 3068.23 658.534C3068.23 648.267 3067.83 645.467 3065.03 639.867C3060.23 630.267 3053.7 627.334 3037.97 627.334C3030.77 627.467 3024.23 628.134 3021.83 629.2Z" fill="white"/>
<path fill-rule="evenodd" clip-rule="evenodd" d="M2710.37 537.001C2724.23 467.001 2783.83 425.668 2847.83 441.801C2861.03 445.134 2877.43 453.134 2886.77 460.734L2894.23 466.734L2895.03 461.268C2897.57 445.401 2912.77 435.667 2929.3 439.134C2937.83 441 2946.37 448.867 2948.9 457.134C2951.03 464.334 2951.17 663.664 2949.03 671.4C2946.1 682.2 2934.23 691.001 2922.5 691.001C2910.5 691.001 2898.63 681.933 2895.57 670.467L2894.1 664.601L2885.43 671.801C2866.37 687.401 2845.43 695.001 2821.3 695.001C2791.57 694.868 2769.7 686.333 2748.23 666.467C2728.77 648.334 2716.5 625.801 2710.23 597.001C2707.97 586.068 2707.97 548.868 2710.37 537.001ZM2845.57 491.667C2836.5 489.267 2820.23 489.268 2811.83 491.534C2790.23 497.401 2773.43 514.334 2765.57 538.2C2762.5 547.667 2761.97 551.134 2761.97 567.001C2761.97 583.667 2762.23 585.801 2765.97 596.334C2776.77 627.134 2799.57 644.334 2829.17 644.334C2854.77 644.334 2876.37 630.467 2887.57 606.734C2894.63 591.934 2896.5 583.801 2896.37 566.334C2896.23 549.001 2893.83 538.467 2886.77 525.001C2877.7 507.934 2863.43 496.334 2845.57 491.667Z" fill="#DFA327"/>
<path d="M2316.77 465.801C2339.7 443.001 2372.9 434.067 2411.17 440.467C2436.63 444.733 2462.77 458.867 2471.97 473.4C2480.5 486.867 2480.23 496.468 2471.03 505.268C2464.63 511.534 2459.17 513.134 2449.7 511.667C2444.63 511 2441.97 509.401 2435.17 503.001C2420.9 489.801 2406.77 484.334 2386.5 484.334C2368.23 484.334 2356.63 489.267 2353.03 498.601C2350.63 504.867 2351.57 516.867 2354.9 521.801C2360.77 530.467 2368.1 533.934 2402.5 543.934C2430.37 552.067 2441.83 556.6 2453.43 564.2C2470.77 575.4 2479.97 589.668 2482.77 609.268C2486.23 632.734 2479.43 652.867 2462.77 668.601C2451.57 679.134 2442.9 684.201 2426.5 689.801C2415.03 693.801 2412.1 694.201 2394.5 694.734C2378.5 695.134 2372.77 694.733 2361.43 692.467C2334.1 686.734 2316.9 678.334 2301.7 663.001C2292.1 653.401 2287.83 645.8 2287.83 638.467C2287.83 627.667 2296.1 617.934 2307.83 614.867C2316.9 612.601 2323.3 614.867 2333.57 624.2C2357.7 646.067 2379.83 653.801 2406.5 649.801C2425.43 646.867 2433.7 638.467 2432.9 623.4C2432.23 613.534 2429.83 609.534 2420.5 603.4C2414.37 599.267 2408.9 597.401 2366.5 584.334C2321.7 570.467 2302.5 552.867 2298.37 522.067C2295.43 499.534 2301.43 481.134 2316.77 465.801Z" fill="#DFA327"/>
<path fill-rule="evenodd" clip-rule="evenodd" d="M2033.83 508.601C2058.77 455.801 2113.97 428.2 2167.3 441.667C2216.77 454.334 2256.23 504.067 2257.57 555.4C2257.83 568.6 2255.17 574.868 2246.63 581.001L2240.9 585.001L2158.9 585.4L2076.9 585.667L2077.7 590.067C2079.43 598.867 2087.43 613.267 2095.7 621.934C2109.3 636.6 2127.83 644.334 2149.17 644.334C2167.43 644.334 2175.03 642.334 2194.1 632.867C2210.9 624.334 2211.83 624.067 2219.57 624.601C2233.17 625.534 2241.17 634.334 2241.17 648.067C2241.17 653.401 2240.23 656.067 2236.9 661.134C2228.1 674.2 2203.43 687.134 2177.17 692.601C2160.1 696.2 2127.3 695.401 2111.17 691.001C2067.7 679.268 2036.77 648.201 2025.83 605.268C2017.97 574.068 2021.17 535.401 2033.83 508.601ZM2158.63 492.334C2148.1 489.001 2130.63 488.867 2118.5 492.067C2098.37 497.401 2085.83 510.201 2079.43 531.934L2077.3 539.001L2084.23 539.134C2093.3 539.267 2152.1 539.267 2178.37 539.134L2198.9 539.001L2197.97 533.268C2195.03 515.001 2179.43 498.734 2158.63 492.334Z" fill="#DFA327"/>
<path fill-rule="evenodd" clip-rule="evenodd" d="M1583.17 369.268C1589.17 366.068 1709.43 365.934 1721.57 369.134C1746.37 375.534 1769.43 395.667 1782.5 422.067C1790.9 439.267 1792.5 447.134 1792.5 471.001C1792.5 489.001 1792.1 493 1789.43 501.667C1778.9 534.867 1756.9 559.267 1726.77 570.867C1717.83 574.201 1717.83 574.201 1669.57 574.734L1621.17 575.134V620.2C1621.17 671.533 1620.63 675 1612.1 683.4C1599.03 696.2 1577.97 692.334 1570.37 675.667C1567.97 670.6 1567.83 663.531 1567.83 528.601C1567.83 391.934 1567.97 386.734 1570.37 381.934C1573.3 376.334 1577.3 372.334 1583.17 369.268ZM1621.17 521.667H1663.83C1703.3 521.667 1707.03 521.534 1711.57 519.134C1718.9 515.4 1727.43 505.534 1732.23 495.268C1735.83 487.668 1736.5 484.467 1736.9 473.4C1737.7 455 1732.9 441.667 1721.03 429.934C1711.43 420.334 1711.83 420.334 1663.97 420.334H1621.17V521.667Z" fill="#DFA327"/>
<path d="M2557.3 404.734C2563.43 392.068 2579.57 386.201 2592.9 391.667C2599.43 394.467 2603.7 398.601 2606.63 405.001C2608.63 409.401 2609.17 413.667 2609.17 428.601V447.001H2626.9C2647.17 447.001 2652.77 448.2 2659.3 453.934C2665.7 459.534 2668.1 464.601 2668.1 472.867C2668.23 485.267 2661.57 494.334 2649.83 497.534C2646.9 498.334 2636.5 499.001 2626.9 499.001H2609.17V561.934C2609.17 600.866 2609.7 626.866 2610.5 629.934C2613.43 640.067 2624.23 644.734 2636.5 641.001C2640.23 639.934 2645.97 639.001 2649.43 639.001C2654.5 639.001 2656.37 639.668 2659.57 643.001C2667.83 651.268 2668.77 665.801 2661.7 674.601C2656.63 680.734 2646.77 686.334 2635.83 689.134C2621.43 692.867 2595.17 690.2 2582.5 683.667C2574.63 679.667 2567.3 673.001 2562.9 665.534C2554.63 651.668 2554.5 649.934 2554.5 570.867V499.268L2539.57 498.867C2526.5 498.334 2523.83 497.934 2519.43 495.134C2504.23 485.8 2502.5 463.534 2515.97 453.268C2522.23 448.601 2529.17 447.001 2542.9 447.001H2554.5V428.734C2554.5 413.001 2554.9 409.801 2557.3 404.734Z" fill="#DFA327"/>
<path d="M3012.77 636.2C3018.9 629 3025.3 626.868 3039.83 627.268C3050.37 627.668 3053.43 628.334 3057.57 630.867C3064.63 635.134 3068.1 642.734 3068.9 655.134C3069.7 669 3066.77 678.733 3060.23 684.2C3051.03 691.8 3030.9 693.001 3019.3 686.601C3011.03 682.067 3007.57 674.734 3007.3 661.268C3007.17 647.268 3008.37 641.4 3012.77 636.2Z" fill="#DFA327"/>
<path d="M1933.03 446.067C1950.23 438.334 1974.23 436.068 1985.97 441.001C1992.37 443.668 2000.77 451.934 2002.63 457.268C2004.77 463.934 2003.43 476.6 1999.97 482.2C1996.5 487.8 1985.43 493.667 1978.23 493.667C1975.57 493.667 1968.63 492.201 1963.03 490.334C1957.43 488.467 1950.37 487.001 1947.3 487.001C1928.1 487.001 1911.57 500.467 1902.37 523.667C1899.17 531.667 1899.17 531.934 1898.5 601.001L1897.83 670.334L1894.5 676.334C1892.63 679.534 1888.63 684.067 1885.43 686.334C1880.37 689.8 1878.5 690.334 1870.77 690.334C1859.7 690.334 1852.77 687 1847.17 679.134L1843.17 673.4L1842.77 568.467L1842.5 463.534L1845.57 457.534C1849.97 449.401 1857.83 444.068 1867.03 443.268C1883.57 441.934 1895.3 451.534 1897.7 468.734L1898.63 475.001L1903.97 468.334C1910.37 460.334 1923.03 450.601 1933.03 446.067Z" fill="#DFA327"/>
<path d="M4091.03 487.801C4088.23 476.601 4102.37 468.334 4111.03 476.067C4119.7 483.934 4113.83 497.667 4101.83 497.667C4097.7 497.667 4092.23 492.601 4091.03 487.801Z" fill="#DFA327"/>
<path d="M4169.17 404.334C4173.7 404.334 4175.57 405.134 4179.3 408.867C4183.03 412.601 4183.83 414.468 4183.83 419.001C4183.83 423.534 4183.03 425.401 4179.3 429.134C4170.1 438.334 4156.37 433.267 4154.9 419.934C4154.23 414.201 4154.5 413.401 4158.9 409.001C4162.77 405.134 4164.5 404.334 4169.17 404.334Z" fill="#DFA327"/>
<path d="M4094.23 411.001C4099.17 406.201 4105.7 405.667 4110.9 409.667C4115.43 413.267 4116.63 419 4113.97 424.2C4108.23 435.134 4092.9 432.334 4090.9 420.067C4090.23 415.801 4090.77 414.601 4094.23 411.001Z" fill="#DFA327"/>
<path d="M4226.77 336.2C4232.23 332.867 4240.5 333.401 4246.23 337.534C4251.3 341.001 4254.9 349.934 4253.7 355.534C4250.1 372.601 4228.37 376.601 4220.1 361.801C4214.77 352.334 4217.57 342.067 4226.77 336.2Z" fill="#DFA327"/>
<path d="M4154.9 351.534C4155.97 341.934 4161.7 337.267 4171.17 338.334C4175.03 338.734 4177.57 339.934 4180.23 343.001C4188.9 352.601 4181.97 367.001 4168.5 367.001C4164.63 367.001 4162.5 365.934 4158.9 362.334C4154.5 357.934 4154.23 357.134 4154.9 351.534Z" fill="#DFA327"/>
<path d="M4025.7 357.001C4020.63 344.734 4035.83 334.734 4045.3 344.2C4050.23 349.133 4050.37 354.734 4045.7 360.2C4039.83 367.267 4029.3 365.534 4025.7 357.001Z" fill="#DFA327"/>
<path d="M3970.5 340.334C3972.63 340.334 3976.1 341.801 3978.37 343.801C3987.03 351.001 3982.1 364.334 3970.77 364.334C3959.17 364.334 3953.83 351.134 3962.63 343.801C3964.9 341.801 3968.37 340.334 3970.5 340.334Z" fill="#DFA327"/>
<path d="M4091.03 351.134C4092.37 342.601 4101.83 337.667 4109.3 341.667C4110.63 342.467 4112.77 344.867 4113.97 347.134C4118.23 355.4 4112.23 364.334 4102.5 364.334C4095.43 364.334 4089.83 357.934 4091.03 351.134Z" fill="#DFA327"/>
<path d="M4227.83 269.4C4233.7 266.334 4236.5 266.468 4243.3 269.534C4253.3 274.068 4256.9 286.734 4250.9 296.067C4245.97 303.934 4233.83 306.6 4225.83 301.667C4213.7 294.2 4214.9 275.934 4227.83 269.4Z" fill="#DFA327"/>
<path d="M4103.43 271.001C4106.37 271.001 4109.3 272.334 4112.23 275.001C4117.7 279.801 4119.17 285.4 4116.63 291.667C4111.7 303.4 4095.7 303.8 4089.7 292.2C4084.9 282.867 4092.63 271.001 4103.43 271.001Z" fill="#DFA327"/>
<path d="M4023.03 281.001C4026.9 271.801 4036.37 268.468 4044.63 273.534C4053.03 278.601 4053.97 290.601 4046.37 296.867C4034.63 306.734 4017.3 294.867 4023.03 281.001Z" fill="#DFA327"/>
<path d="M4156.5 279.001C4161.17 270.068 4173.43 268.734 4180.23 276.334C4188.37 285.534 4182.37 300.334 4170.5 300.334C4163.7 300.334 4159.43 298.334 4156.77 293.667C4153.97 289 4153.83 284.067 4156.5 279.001Z" fill="#DFA327"/>
<path d="M4087.17 210.2C4092.23 202.467 4103.7 199.4 4111.97 203.667C4120.5 208.2 4123.83 220.734 4118.5 229.268C4111.3 241.267 4096.23 241.267 4087.43 229.268C4084.1 225.001 4083.97 215 4087.17 210.2Z" fill="#DFA327"/>
<path d="M4168.5 201.667C4172.5 201.667 4176.5 202.601 4179.17 204.334C4190.63 211.401 4190.1 229.667 4178.23 235.801C4168.77 240.734 4158.1 237.267 4153.03 227.667C4149.03 220.2 4150.37 213.534 4157.17 206.734C4161.57 202.334 4162.9 201.667 4168.5 201.667Z" fill="#DFA327"/>
<path d="M4225.7 204.067C4231.97 200.201 4242.63 201.267 4247.83 206.334C4255.57 213.801 4255.7 225.534 4248.1 232.734C4236.37 244.067 4217.17 235.8 4217.17 219.534C4217.17 214.201 4221.17 207.001 4225.7 204.067Z" fill="#DFA327"/>
</svg>
